<svg width="24" height="24" viewBox="0 0 24 24" fill="none" xmlns="http://www.w3.org/2000/svg">
<path d="M15 22.25H9C6.3424 22.25 4.56492 21.6803 3.4423 20.5577C2.31968 19.4351 1.75 17.6576 1.75 15V9C1.75 6.3424 2.31968 4.56492 3.4423 3.4423C4.56492 2.31968 6.3424 1.75 9 1.75H15C17.6576 1.75 19.4351 2.31968 20.5577 3.4423C21.6803 4.56492 22.25 6.3424 22.25 9V15C22.25 17.6576 21.6803 19.4351 20.5577 20.5577C19.4351 21.6803 17.6576 22.25 15 22.25ZM9 2.25C6.65972 2.25 4.92432 2.66107 3.7927 3.7927C2.66107 4.92432 2.25 6.65972 2.25 9V15C2.25 17.3403 2.66107 19.0757 3.7927 20.2073C4.92432 21.3389 6.65972 21.75 9 21.75H15C17.3403 21.75 19.0757 21.3389 20.2073 20.2073C21.3389 19.0757 21.75 17.3403 21.75 15V9C21.75 6.65972 21.3389 4.92432 20.2073 3.7927C19.0757 2.66107 17.3403 2.25 15 2.25H9Z" fill="#475467" stroke="#475467"/>
<path d="M12 12.5C11.7194 12.5 11.5 12.2771 11.5 12C11.5 11.7261 11.7261 11.5 12 11.5C12.2739 11.5 12.5 11.7261 12.5 12C12.5 12.2771 12.2806 12.5 12 12.5Z" fill="#475467" stroke="#475467"/>
<path d="M16 12.5C15.7194 12.5 15.5 12.2771 15.5 12C15.5 11.7261 15.7261 11.5 16 11.5C16.2739 11.5 16.5 11.7261 16.5 12C16.5 12.2771 16.2806 12.5 16 12.5Z" fill="#475467" stroke="#475467"/>
<path d="M8 13C7.44 13 7 12.55 7 12C7 11.45 7.45 11 8 11C8.55 11 9 11.45 9 12C9 12.55 8.56 13 8 13Z" fill="#475467"/>
</svg>
