<svg width="24" height="24" viewBox="0 0 24 24" fill="none" xmlns="http://www.w3.org/2000/svg">
<path d="M13.0438 8.69601L13.0631 8.63164H12.9959H12.0106C11.9637 8.40138 11.882 8.18836 11.7653 7.99292C11.7455 7.95968 11.7246 7.92719 11.7026 7.89545L12.7424 7.90107L12.7797 7.90128L12.7905 7.86552L13.0474 7.01445L13.0668 6.95H12.9995H9.37433H9.20791H9.17103H8.26362H8.22608L8.21561 6.98605L7.9515 7.89523L7.93292 7.95918H7.99951H9.37433C9.88219 7.95918 10.2447 8.07089 10.4726 8.28408C10.5789 8.38353 10.661 8.49919 10.7185 8.63164H8.25277H8.21557L8.20488 8.66727L7.95162 9.51151L7.93231 9.57588H7.99951H10.7553C10.7291 9.65276 10.695 9.72383 10.6529 9.78923C10.5433 9.95744 10.3829 10.087 10.169 10.1771C9.95488 10.2672 9.69055 10.3133 9.37433 10.3133H8.08996H8.03941L8.03996 10.3638L8.0472 11.0303L8.0474 11.0488L8.05951 11.0626L10.65 14.0329L10.6649 14.05H10.6876H12.0082H12.0582V14V13.9419V13.9233L12.046 13.9092L9.74186 11.2431C10.2742 11.2063 10.7106 11.096 11.0483 10.9095C11.398 10.7164 11.6554 10.4648 11.8174 10.154C11.9115 9.97339 11.9779 9.78062 12.0168 9.57588H12.7426H12.7798L12.7905 9.54025L13.0438 8.69601Z" fill="#475467" stroke="#475467" stroke-width="0.1"/>
<path d="M9.99 18.72C5.17 18.72 1.25 14.8 1.25 9.98C1.25 5.16 5.17 1.24 9.99 1.24C14.81 1.24 18.73 5.16 18.73 9.98C18.73 14.8 14.8 18.72 9.99 18.72ZM9.99 2.75C6 2.75 2.75 6 2.75 9.99C2.75 13.98 6 17.22 9.99 17.22C13.98 17.22 17.23 13.97 17.23 9.98C17.23 5.99 13.98 2.75 9.99 2.75Z" fill="#475467"/>
<path d="M17.02 22.72C15.17 22.72 13.43 21.82 12.36 20.3C12.12 19.96 12.2 19.49 12.54 19.25C12.88 19.01 13.35 19.09 13.59 19.43C14.38 20.55 15.66 21.21 17.02 21.21C19.34 21.21 21.22 19.33 21.22 17.01C21.22 15.66 20.56 14.38 19.46 13.59C19.12 13.35 19.05 12.88 19.29 12.54C19.53 12.2 20 12.13 20.34 12.37C21.83 13.44 22.72 15.17 22.72 17.01C22.72 20.17 20.17 22.72 17.02 22.72Z" fill="#475467"/>
</svg>
